# xmcd
#
# Track frame offsets: 
#        150
#        40941
#        56885
#        79309
#        108793
#        131992
#        151913
#        169525
#        182916
#
# Disc length: 2846 seconds
#
# Revision: 1
# Processed by: cddbd v1.5.2PL0 Copyright (c) Steve Scherf et al.
# Submitted via: ExactAudioCopy v0.99pb4
#
DISCID=750b1c09
DTITLE=John Mayall - Moving On
DYEAR=1972
DGENRE=Blues
TTITLE0=A Brief Introduction by Bill Cosby/Worried Mind
TTITLE1=Keep Our Country Green
TTITLE2=Chistmas 71
TTITLE3=Things Go Wrong
TTITLE4=Do It
TTITLE5=Moving On
TTITLE6=Red Sky
TTITLE7=Reasons
TTITLE8=High Pressure Living
EXTD=
EXTT0=
EXTT1=
EXTT2=
EXTT3=
EXTT4=
EXTT5=
EXTT6=
EXTT7=
EXTT8=
PLAYORDER=
